#!OML:ASF H:\BabyWalks\Project 1\Capture day 1\Session 1\baby.ASF
:FULLY-SPECIFIED
:DEGREES
1075
root 28.9707 17.2786 -1.68935 18.0363 92.5024 10.4714
lowerback 25.3461 -2.72912 -4.7392
upperback 5.5826 -4.30412 -0.184403
thorax -7.50067 -1.78843 3.80436
lowerneck -3.26848 0.189577 5.69248
upperneck -9.33826 0.195553 -2.46867
head -2.40591 0.0424964 -1.77975
rclavicle 7.67309e-014 -3.18055e-015
rhumerus -40.4436 6.73902 -79.4975
rradius 45.3133
rwrist 6.99677
rhand -8.16917 -14.3109
rfingers 7.12502
rthumb 17.7461 -43.5211
lclavicle 7.67309e-014 -3.18055e-015
lhumerus -22.5779 -37.6851 77.3458
lradius 72.2972
lwrist 5.3862
lhand -7.29016 1.175
lfingers 7.12502
lthumb 18.5917 30.3066
rfemur -37.8333 0.641938 17.2904
rtibia 30.8497
rfoot -14.5738 -4.01298
rtoes -17.5614
lfemur -0.0392938 4.81441 -17.203
ltibia 24.0412
lfoot -28.3587 8.13218
ltoes -13.3323
1076
root 29.1291 17.258 -1.66737 12.9366 92.4966 5.71106
lowerback 25.0143 -2.8456 -4.62082
upperback 5.51349 -4.41039 -0.0390679
thorax -7.39682 -1.84951 3.91094
lowerneck -3.21883 0.265223 5.90326
upperneck -8.92019 0.23561 -3.20386
head -2.27863 0.0711267 -2.05719
rclavicle -9.54166e-015 2.46493e-014
rhumerus -40.8377 6.51521 -79.141
rradius 45.3977
rwrist 6.87176
rhand -8.2219 -14.3293
rfingers 7.12502
rthumb 17.6953 -43.5441
lclavicle -9.54166e-015 2.46493e-014
lhumerus -23.2014 -37.5514 77.7657
lradius 72.3368
lwrist 5.50537
lhand -7.22899 1.31117
lfingers 7.12502
lthumb 18.6506 30.4371
rfemur -37.2367 1.0561 16.9225
rtibia 30.3633
rfoot -13.7912 -4.67194
rtoes -17.3396
lfemur 1.39284 4.55564 -17.26
ltibia 23.0959
lfoot -28.0855 8.18089
ltoes -14.1942
1077
root 29.289 17.2351 -1.64335 7.56172 92.5291 0.691596
lowerback 24.6748 -2.95356 -4.4996
upperback 5.44899 -4.50535 0.102752
thorax -7.28477 -1.90543 4.0067
lowerneck -3.13901 0.32768 6.09497
upperneck -8.50949 0.266894 -3.92366
head -2.15968 0.0949955 -2.32851
rclavicle 3.73715e-014 5.56597e-015
rhumerus -41.236 6.30135 -78.7891
rradius 45.4653
rwrist 6.74914
rhand -8.24903 -14.3432
rfingers 7.12502
rthumb 17.6692 -43.5604
lclavicle 3.73715e-014 5.56597e-015
lhumerus -23.8243 -37.4182 78.1849
lradius 72.3454
lwrist 5.61642
lhand -7.14883 1.46776
lfingers 7.12502
lthumb 18.7277 30.5862
rfemur -36.6442 1.36479 16.6129
rtibia 30.1929
rfoot -12.7222 -5.12171
rtoes -16.8559
lfemur 2.79698 4.30404 -17.313
ltibia 22.2377
lfoot -27.8054 8.17086
ltoes -15.1246
1078
root 29.4496 17.2107 -1.61748 2.14161 92.5975 -4.34744
lowerback 24.3445 -3.05108 -4.37579
upperback 5.39211 -4.58684 0.240155
thorax -7.17014 -1.95468 4.09128
lowerneck -3.02251 0.376381 6.25986
upperneck -8.12132 0.289592 -4.61602
head -2.055 0.114461 -2.58857
rclavicle 6.55989e-014 1.27222e-014
rhumerus -41.6307 6.09452 -78.4464
rradius 45.5077
rwrist 6.6357
rhand -8.27329 -14.3482
rfingers 7.12502
rthumb 17.6459 -43.5674
lclavicle 6.55989e-014 1.27222e-014
lhumerus -24.4371 -37.2816 78.5977
lradius 72.3153
lwrist 5.69928
lhand -7.06067 1.63515
lfingers 7.12502
lthumb 18.8125 30.7454
rfemur -36.0675 1.55573 16.3707
rtibia 30.3498
rfoot -11.5139 -5.31768
rtoes -16.2265
lfemur 4.17959 4.06071 -17.3601
ltibia 21.4693
lfoot -27.5095 8.10088
ltoes -16.0964
1079
root 29.6105 17.1861 -1.58988 -2.9986 92.6939 -9.07132
lowerback 24.0402 -3.13618 -4.24693
upperback 5.34782 -4.65132 0.375808
thorax -7.05647 -1.99525 4.16636
lowerneck -2.88582 0.414607 6.39585
upperneck -7.74978 0.30668 -5.28159
head -1.95947 0.131252 -2.83684
rclavicle -3.598e-014 1.59028e-014
rhumerus -42.0097 5.89049 -78.1126
rradius 45.5187
rwrist 6.5431
rhand -8.29536 -14.3472
rfingers 7.12502
rthumb 17.6246 -43.5684
lclavicle -3.598e-014 1.59028e-014
lhumerus -25.0362 -37.1275 79.0035
lradius 72.2419
lwrist 5.73882
lhand -6.95963 1.79755
lfingers 7.12502
lthumb 18.9096 30.8984
rfemur -35.5109 1.64392 16.198
rtibia 30.8262
rfoot -10.3067 -5.3082
rtoes -15.4712
lfemur 5.53699 3.8339 -17.3896
ltibia 20.8143
lfoot -27.1984 7.96417
ltoes -17.0887
1080
root 29.771 17.162 -1.56075 -7.70657 92.8065 -13.327
lowerback 23.7703 -3.20804 -4.11333
upperback 5.31985 -4.69743 0.511349
thorax -6.9441 -2.0263 4.23424
lowerneck -2.7349 0.44504 6.49661
upperneck -7.40144 0.321292 -5.91256
head -1.87392 0.147101 -3.06922
rclavicle -9.74045e-015 -3.18055e-015
rhumerus -42.357 5.68063 -77.785
rradius 45.4947
rwrist 6.49188
rhand -8.30372 -14.3371
rfingers 7.12502
rthumb 17.6166 -43.559
lclavicle -9.74045e-015 -3.18055e-015
lhumerus -25.6183 -36.9402 79.3986
lradius 72.1203
lwrist 5.71895
lhand -6.84813 1.94576
lfingers 7.12502
lthumb 19.0169 31.0361
rfemur -34.9879 1.65782 16.0844
rtibia 31.5922
rfoot -9.17574 -5.16147
rtoes -14.3207
lfemur 6.84672 3.63831 -17.3943
ltibia 20.3176
lfoot -26.8817 7.75738
ltoes -18.088
1081
root 29.9305 17.1381 -1.53031 -11.6029 92.9133 -16.7374
lowerback 23.5419 -3.26512 -3.95892
upperback 5.30955 -4.71856 0.655429
thorax -6.83664 -2.04465 4.2942
lowerneck -2.58737 0.471362 6.56136
upperneck -7.06729 0.336547 -6.51627
head -1.79204 0.163621 -3.28743
rclavicle 3.29983e-014 1.03368e-014
rhumerus -42.661 5.47065 -77.4621
rradius 45.4281
rwrist 6.48337
rhand -8.29832 -14.3212
rfingers 7.12502
rthumb 17.6218 -43.5426
lclavicle 3.29983e-014 1.03368e-014
lhumerus -26.1854 -36.7062 79.7874
lradius 71.9485
lwrist 5.63856
lhand -6.7484 2.07092
lfingers 7.12502
lthumb 19.1128 31.1518
rfemur -34.4997 1.63076 16.0443
rtibia 32.5948
rfoot -8.27166 -4.94263
rtoes -12.905
lfemur 8.07699 3.49495 -17.3446
ltibia 20.0419
lfoot -26.5856 7.47612
ltoes -19.0542
1082
root 30.0889 17.1143 -1.4988 -14.4457 92.9855 -19.0636
lowerback 23.3553 -3.30693 -3.76513
upperback 5.31925 -4.70889 0.81458
thorax -6.73348 -2.04768 4.34152
lowerneck -2.44942 0.495548 6.58837
upperneck -6.74737 0.354307 -7.09227
head -1.71257 0.181687 -3.4906
rclavicle -9.24349e-015 1.98785e-015
rhumerus -42.9104 5.25601 -77.1414
rradius 45.3176
rwrist 6.52816
rhand -8.28617 -14.2996
rfingers 7.12502
rthumb 17.6335 -43.52
lclavicle -9.24349e-015 1.98785e-015
lhumerus -26.7401 -36.4179 80.1682
lradius 71.7262
lwrist 5.50504
lhand -6.66153 2.1792
lfingers 7.12502
lthumb 19.1963 31.2518
rfemur -34.0317 1.6091 16.0903
rtibia 33.7611
rfoot -7.69871 -4.71835
rtoes -11.2474
lfemur 9.19319 3.42825 -17.2075
ltibia 20.0559
lfoot -26.3275 7.11444
ltoes -19.9738
1083
root 30.246 17.0903 -1.46664 -16.1038 92.9996 -20.1786
lowerback 23.2104 -3.33399 -3.51364
upperback 5.35026 -4.66425 0.994075
thorax -6.63465 -2.03345 4.37058
lowerneck -2.33889 0.520184 6.58589
upperneck -6.42985 0.376594 -7.65084
head -1.62832 0.201884 -3.68327
rclavicle -8.24956e-015 4.37326e-015
rhumerus -43.1001 5.03135 -76.8197
rradius 45.1621
rwrist 6.63095
rhand -8.26642 -14.2706
rfingers 7.12502
rthumb 17.6525 -43.4893
lclavicle -8.24956e-015 4.37326e-015
lhumerus -27.2864 -36.067 80.5421
lradius 71.4564
lwrist 5.3255
lhand -6.60519 2.27434
lfingers 7.12502
lthumb 19.2505 31.3416
rfemur -33.5633 1.62167 16.2356
rtibia 35.0062
rfoot -7.45804 -4.54641
rtoes -9.44823
lfemur 10.1657 3.4656 -16.953
ltibia 20.4186
lfoot -26.1206 6.66471
ltoes -20.8812
1084
root 30.4016 17.0661 -1.43469 -16.6701 92.9447 -20.1843
lowerback 23.101 -3.34983 -3.19732
upperback 5.40085 -4.58774 1.19206
thorax -6.53927 -2.00345 4.37593
lowerneck -2.25537 0.547592 6.57207
upperneck -6.11275 0.405672 -8.20934
head -1.5386 0.225019 -3.87497
rclavicle -3.24019e-014 4.77083e-015
rhumerus -43.2251 4.79581 -76.4968
rradius 44.9611
rwrist 6.79257
rhand -8.23339 -14.238
rfingers 7.12502
rthumb 17.6843 -43.4538
lclavicle -3.24019e-014 4.77083e-015
lhumerus -27.8314 -35.6494 80.9074
lradius 71.1427
lwrist 5.12161
lhand -6.59208 2.36143
lfingers 7.12502
lthumb 19.2631 31.4274
rfemur -33.0724 1.67529 16.4776
rtibia 36.2516
rfoot -7.52759 -4.44808
rtoes -7.699
lfemur 10.9741 3.61809 -16.5746
ltibia 21.1524
lfoot -25.9602 6.11428
ltoes -21.7407
1085
root 30.5556 17.042 -1.4027 -15.9451 92.8043 -18.8946
lowerback 23.0143 -3.35015 -2.81186
upperback 5.46759 -4.47275 1.41156
thorax -6.44489 -1.95456 4.35595
lowerneck -2.20084 0.57556 6.55238
upperneck -5.79309 0.438585 -8.77088
head -1.44224 0.249311 -4.06786
rclavicle -3.77877e-014 8.72168e-015
rhumerus -43.2887 4.54067 -76.1683
rradius 44.7147
rwrist 7.00987
rhand -8.1796 -14.2078
rfingers 7.12502
rthumb 17.736 -43.4189
lclavicle -3.77877e-014 8.72168e-015
lhumerus -28.3781 -35.1756 81.2644
lradius 70.7899
lwrist 4.91284
lhand -6.61882 2.46912
lfingers 7.12502
lthumb 19.2374 31.5376
rfemur -32.5459 1.79968 16.8252
rtibia 37.4302
rfoot -7.85947 -4.40652
rtoes -6.2844
lfemur 11.6088 3.89602 -16.0529
ltibia 22.2428
lfoot -25.8193 5.45414
ltoes -22.5368
1086
root 30.7077 17.019 -1.37174 -14.0208 92.6002 -16.4122
lowerback 22.9449 -3.34368 -2.36563
upperback 5.5454 -4.33376 1.64285
thorax -6.35269 -1.89346 4.30847
lowerneck -2.16747 0.608004 6.54694
upperneck -5.47554 0.480316 -9.34723
head -1.3417 0.277039 -4.27044
rclavicle -3.18055e-014 1.03368e-014
rhumerus -43.2929 4.26586 -75.836
rradius 44.4283
rwrist 7.27928
rhand -8.1251 -14.1771
rfingers 7.12502
rthumb 17.7885 -43.3835
lclavicle -3.18055e-014 1.03368e-014
lhumerus -28.9268 -34.6446 81.6067
lradius 70.393
lwrist 4.70917
lhand -6.67827 2.59434
lfingers 7.12502
lthumb 19.1802 31.6685
rfemur -31.9675 1.95986 17.2508
rtibia 38.4976
rfoot -8.34042 -4.38818
rtoes -5.25551
lfemur 12.0721 4.28218 -15.4146
ltibia 23.647
lfoot -25.6408 4.67452
ltoes -23.2498
1087
root 30.8574 16.9982 -1.34239 -11.1919 92.3568 -13.0461
lowerback 22.8857 -3.33204 -1.88512
upperback 5.62728 -4.18047 1.87513
thorax -6.26403 -1.82454 4.23919
lowerneck -2.14828 0.643967 6.56152
upperneck -5.1653 0.529682 -9.93859
head -1.23985 0.307638 -4.48436
rclavicle -1.08338e-014 5.96354e-016
rhumerus -43.2426 3.96687 -75.4988
rradius 44.1046
rwrist 7.59296
rhand -8.05488 -14.154
rfingers 7.12502
rthumb 17.856 -43.3543
lclavicle -1.08338e-014 5.96354e-016
lhumerus -29.476 -34.0623 81.9324
lradius 69.9535
lwrist 4.51963
lhand -6.76252 2.74321
lfingers 7.12502
lthumb 19.0992 31.8254
rfemur -31.3371 2.13236 17.7101
rtibia 39.4315
rfoot -8.8615 -4.36801
rtoes -4.35468
lfemur 12.3668 4.74657 -14.7071
ltibia 25.3112
lfoot -25.3756 3.78638
ltoes -23.8736
1088
root 31.0044 16.9804 -1.31467 -7.82785 92.0977 -9.17498
lowerback 22.8299 -3.31569 -1.40207
upperback 5.70839 -4.02208 2.09865
thorax -6.17796 -1.75214 4.15775
lowerneck -2.12662 0.682861 6.59857
upperneck -4.87957 0.585689 -10.5366
head -1.14523 0.341085 -4.70773
rclavicle 4.09496e-014 -1.43125e-014
rhumerus -43.1426 3.64542 -75.1593
rradius 43.747
rwrist 7.93762
rhand -7.99392 -14.1373
rfingers 7.12502
rthumb 17.9147 -43.3322
lclavicle 4.09496e-014 -1.43125e-014
lhumerus -30.0231 -33.4502 82.2437
lradius 69.4694
lwrist 4.39152
lhand -6.91719 2.93273
lfingers 7.12502
lthumb 18.9505 32.0296
rfemur -30.6646 2.29564 18.1638
rtibia 40.2314
rfoot -9.4449 -4.31533
rtoes -3.63815
lfemur 12.501 5.25066 -13.9799
ltibia 27.1796
lfoot -24.9726 2.80716
ltoes -24.3664
1089
root 31.1484 16.966 -1.28843 -4.42276 91.8479 -5.30285
lowerback 22.7698 -3.29774 -0.946471
upperback 5.78519 -3.87041 2.30773
thorax -6.09159 -1.68203 4.07788
lowerneck -2.12711 0.726838 6.61682
upperneck -4.70623 0.625284 -11.4892
head -0.960473 0.381783 -4.5399
rclavicle 2.92213e-014 -1.98785e-015
rhumerus -42.9929 3.30596 -74.8204
rradius 43.3585
rwrist 8.2979
rhand -7.95347 -14.1306
rfingers 7.12502
rthumb 17.9536 -43.3219
lclavicle 2.92213e-014 -1.98785e-015
lhumerus -30.557 -32.8065 82.5341
lradius 68.9376
lwrist 4.31196
lhand -7.11187 3.15931
lfingers 7.12502
lthumb 18.7632 32.2744
rfemur -29.9645 2.43652 18.5749
rtibia 40.9056
rfoot -10.1355 -4.24638
rtoes -3.33566
lfemur 12.4719 5.74876 -13.2808
ltibia 29.2118
lfoot -24.4164 1.76035
ltoes -24.642
